# Wavefront Obj file
# 
# verts: 128 uv-s: 272
mtllib ducyt.mtl

g Line001
#pivot 0.000000 0.000000 0.000000

v -41.703999 0.000000 -10.313900
v -45.325500 0.000000 -7.584101
v -45.325500 0.010000 -7.584101
v -41.703999 0.010000 -10.313900
v -48.766502 0.000000 -4.618999
v -48.766502 0.010000 -4.618999
v -51.846703 0.000000 -1.183201
v -51.846703 0.010000 -1.183201
v -54.385605 0.000000 2.958600
v -54.385605 0.010000 2.958600
v -56.202904 0.000000 8.041700
v -56.202904 0.010000 8.041700
v -57.118004 0.000000 14.301400
v -57.118004 0.010000 14.301400
v -56.950699 0.000000 21.973101
v -56.950699 0.010000 21.973101
v -53.363205 0.000000 67.712997
v -53.363205 0.010000 67.712997
v -52.189201 0.000000 71.300499
v -52.189201 0.010000 71.300499
v -50.889702 0.000000 74.503502
v -50.889702 0.010000 74.503502
v -49.339104 0.000000 76.937897
v -49.339104 0.010000 76.937897
v -47.412003 0.000000 78.219101
v -47.412003 0.010000 78.219101
v -44.982903 0.000000 77.962799
v -44.982903 0.010000 77.962799
v -41.926300 0.000000 75.784698
v -41.926300 0.010000 75.784698
v -38.116600 0.000000 71.300400
v -38.116600 0.010000 71.300400
v -33.993099 0.000000 66.633102
v -33.993099 0.010000 66.633102
v -30.057899 0.000000 63.942505
v -30.057899 0.010000 63.942505
v -26.279600 0.000000 62.899200
v -26.279600 0.010000 62.899200
v -22.626801 0.000000 63.173805
v -22.626801 0.010000 63.173805
v -19.068100 0.000000 64.436699
v -19.068100 0.010000 64.436699
v -15.572200 0.000000 66.358597
v -15.572200 0.010000 66.358597
v -12.107600 0.000000 68.609901
v -12.107600 0.010000 68.609901
v -4.645100 0.000000 73.533401
v -4.645100 0.010000 73.533401
v 2.621300 0.000000 78.017799
v 2.621300 0.010000 78.017799
v 9.495501 0.000000 81.623497
v 9.495501 0.010000 81.623497
v 15.781401 0.000000 83.911400
v 15.781401 0.010000 83.911400
v 21.282801 0.000000 84.442200
v 21.282801 0.010000 84.442200
v 25.803698 0.000000 82.776604
v 25.803698 0.010000 82.776604
v 29.148001 0.000000 78.475304
v 29.148001 0.010000 78.475304
v 31.132601 0.000000 72.657501
v 31.132601 0.010000 72.657501
v 31.846399 0.000000 66.745499
v 31.846399 0.010000 66.745499
v 31.501299 0.000000 60.755104
v 31.501299 0.010000 60.755104
v 30.308901 0.000000 54.702003
v 30.308901 0.010000 54.702003
v 28.481199 0.000000 48.601799
v 28.481199 0.010000 48.601799
v 26.229898 0.000000 42.470200
v 26.229898 0.010000 42.470200
v 23.766802 0.000000 36.322899
v 23.766802 0.010000 36.322899
v 21.701200 0.000000 31.488199
v 21.701200 0.010000 31.488199
v 19.925699 0.000000 26.473101
v 19.925699 0.010000 26.473101
v 18.730801 0.000000 21.097200
v 18.730801 0.010000 21.097200
v 18.406601 0.000000 15.180000
v 18.406601 0.010000 15.180000
v 19.243299 0.000000 8.541100
v 19.243299 0.010000 8.541100
v 21.531199 0.000000 1.000099
v 21.531199 0.010000 1.000099
v 25.560499 0.000000 -7.623301
v 25.560499 0.010000 -7.623301
v 29.589899 0.000000 -16.011499
v 29.589899 0.010000 -16.011499
v 31.877802 0.000000 -22.893499
v 31.877802 0.010000 -22.893499
v 32.714500 0.000000 -28.520399
v 32.714500 0.010000 -28.520399
v 32.390297 0.000000 -33.143295
v 32.390297 0.010000 -33.143295
v 31.195299 0.000000 -37.013199
v 31.195299 0.010000 -37.013199
v 29.419901 0.000000 -40.380997
v 29.419901 0.010000 -40.380997
v 27.354300 0.000000 -43.497795
v 27.354300 0.010000 -43.497795
v 24.067499 0.000000 -45.150299
v 24.067499 0.010000 -45.150299
v 20.663099 0.000000 -46.339996
v 20.663099 0.010000 -46.339996
v 17.023399 0.000000 -46.604095
v 17.023399 0.010000 -46.604095
v 13.030600 0.000000 -45.479698
v 13.030600 0.010000 -45.479698
v 8.567200 0.000000 -42.504097
v 8.567200 0.010000 -42.504097
v 3.515500 0.000000 -37.214500
v 3.515500 0.010000 -37.214500
v -2.242200 0.000000 -29.148001
v -2.242200 0.010000 -29.148001
v -8.287500 0.000000 -20.950701
v -8.287500 0.010000 -20.950701
v -14.144500 0.000000 -15.295000
v -14.144500 0.010000 -15.295000
v -19.844700 0.000000 -11.757200
v -19.844700 0.010000 -11.757200
v -25.419300 0.000000 -9.913801
v -25.419300 0.010000 -9.913801
v -30.899900 0.000000 -9.341200
v -30.899900 0.010000 -9.341200
v -36.317600 0.000000 -9.615801
v -36.317600 0.010000 -9.615801
# 128 positions

vt 0.370952 0.012198
vt 0.391068 0.012198
vt 0.391068 0.012142
vt 0.370952 0.012142
vt 0.012198 0.608398
vt 0.012198 0.591928
vt 0.012142 0.591928
vt 0.012142 0.608398
vt 0.012198 0.572844
vt 0.012142 0.572844
vt 0.012198 0.549838
vt 0.012142 0.549838
vt 0.012198 0.521603
vt 0.012142 0.521603
vt 0.012198 0.486833
vt 0.012142 0.486833
vt 0.012198 0.444220
vt 0.012142 0.444220
vt 0.012198 0.190155
vt 0.012142 0.190155
vt 0.012198 0.170228
vt 0.012142 0.170228
vt 0.012198 0.152436
vt 0.012142 0.152436
vt 0.012198 0.138914
vt 0.012142 0.138914
vt 0.013928 0.005000
vt 0.024632 0.005000
vt 0.024632 0.005056
vt 0.013928 0.005056
vt 0.038124 0.005000
vt 0.038124 0.005056
vt 0.055103 0.005000
vt 0.055103 0.005056
vt 0.026426 0.216530
vt 0.026426 0.191622
vt 0.026482 0.191622
vt 0.026482 0.216530
vt 0.026426 0.165697
vt 0.026482 0.165697
vt 0.154984 0.005000
vt 0.176842 0.005000
vt 0.176842 0.005056
vt 0.154984 0.005056
vt 0.197829 0.005000
vt 0.197829 0.005056
vt 0.218119 0.005000
vt 0.218119 0.005056
vt 0.237886 0.005000
vt 0.237886 0.005056
vt 0.257304 0.005000
vt 0.257304 0.005056
vt 0.276549 0.005000
vt 0.276549 0.005056
vt 0.318000 0.005000
vt 0.318000 0.005056
vt 0.358361 0.005000
vt 0.358361 0.005056
vt 0.396545 0.005000
vt 0.396545 0.005056
vt 0.431460 0.005000
vt 0.431460 0.005056
vt 0.462018 0.005000
vt 0.462018 0.005056
vt 0.487130 0.005000
vt 0.487130 0.005056
vt 0.005000 0.822459
vt 0.005000 0.798567
vt 0.005056 0.798567
vt 0.005056 0.822459
vt 0.005000 0.766252
vt 0.005056 0.766252
vt 0.005000 0.733413
vt 0.005056 0.733413
vt 0.005000 0.700139
vt 0.005056 0.700139
vt 0.005000 0.666517
vt 0.005056 0.666517
vt 0.005000 0.632633
vt 0.005056 0.632633
vt 0.005000 0.598575
vt 0.005056 0.598575
vt 0.005000 0.564429
vt 0.005056 0.564429
vt 0.005000 0.537574
vt 0.005056 0.537574
vt 0.005000 0.509718
vt 0.005056 0.509718
vt 0.005000 0.479857
vt 0.005056 0.479857
vt 0.005000 0.446989
vt 0.005056 0.446989
vt 0.005000 0.410113
vt 0.005056 0.410113
vt 0.005000 0.368226
vt 0.005056 0.368226
vt 0.005000 0.320327
vt 0.005056 0.320327
vt 0.005000 0.273734
vt 0.005056 0.273734
vt 0.005000 0.235507
vt 0.005056 0.235507
vt 0.005000 0.204252
vt 0.005056 0.204252
vt 0.005000 0.178574
vt 0.005056 0.178574
vt 0.005000 0.157078
vt 0.005056 0.157078
vt 0.005000 0.138371
vt 0.005056 0.138371
vt 0.005000 0.121059
vt 0.005056 0.121059
vt 0.208550 0.019340
vt 0.226806 0.019340
vt 0.226806 0.019284
vt 0.208550 0.019284
vt 0.245716 0.019340
vt 0.245716 0.019284
vt 0.265933 0.019340
vt 0.265933 0.019284
vt 0.288112 0.019340
vt 0.288112 0.019284
vt 0.312904 0.019340
vt 0.312904 0.019284
vt 0.019340 0.272918
vt 0.019340 0.243537
vt 0.019284 0.243537
vt 0.019284 0.272918
vt 0.019340 0.198731
vt 0.019284 0.198731
vt 0.019340 0.153198
vt 0.019284 0.153198
vt 0.185338 0.012198
vt 0.217871 0.012198
vt 0.217871 0.012142
vt 0.185338 0.012142
vt 0.249533 0.012198
vt 0.249533 0.012142
vt 0.280498 0.012198
vt 0.280498 0.012142
vt 0.310940 0.012198
vt 0.310940 0.012142
vt 0.341033 0.012198
vt 0.341033 0.012142
vt 0.527452 0.388444
vt 0.123137 0.312397
vt 0.516167 0.438479
vt 0.531329 0.418363
vt 0.046683 0.460773
vt 0.053089 0.419598
vt 0.040990 0.436576
vt 0.039567 0.450069
vt 0.060205 0.469386
vt 0.077996 0.476604
vt 0.097924 0.483125
vt 0.077997 0.398437
vt 0.351989 0.503052
vt 0.103922 0.375532
vt 0.124662 0.332687
vt 0.118867 0.353674
vt 0.394602 0.503981
vt 0.429372 0.498898
vt 0.457607 0.488804
vt 0.480613 0.474701
vt 0.499697 0.457592
vt 0.525927 0.358351
vt 0.529107 0.327908
vt 0.539347 0.296944
vt 0.116122 0.292630
vt 0.558998 0.265282
vt 0.105447 0.273212
vt 0.065594 0.212517
vt 0.092942 0.253968
vt 0.590412 0.232749
vt 0.040685 0.172155
vt 0.007948 0.099056
vt 0.020657 0.133972
vt 0.014252 0.043387
vt 0.005000 0.068498
vt 0.070459 0.013787
vt 0.038144 0.024810
vt 0.136572 0.011739
vt 0.103298 0.009822
vt 0.204078 0.028514
vt 0.170194 0.018362
vt 0.272282 0.054701
vt 0.238137 0.041019
vt 0.326993 0.076036
vt 0.299137 0.066174
vt 0.389722 0.084474
vt 0.356854 0.082674
vt 0.468485 0.067118
vt 0.426598 0.079827
vt 0.635945 0.199170
vt 0.516385 0.044737
vt 0.680751 0.167188
vt 0.562977 0.022356
vt 0.632459 0.005000
vt 0.601204 0.009648
vt 0.710132 0.139128
vt 0.658137 0.006801
vt 0.726661 0.114336
vt 0.679633 0.013439
vt 0.732906 0.092157
vt 0.698340 0.023300
vt 0.731439 0.071940
vt 0.724831 0.053030
vt 0.715652 0.034774
vt 0.355082 0.611556
vt 0.351204 0.581637
vt 0.366367 0.561521
vt 0.759397 0.687603
vt 0.835850 0.539227
vt 0.842967 0.549932
vt 0.841543 0.563424
vt 0.829445 0.580402
vt 0.822328 0.530614
vt 0.804537 0.523396
vt 0.804536 0.601564
vt 0.784610 0.516875
vt 0.530544 0.496948
vt 0.778611 0.624468
vt 0.763666 0.646326
vt 0.757871 0.667313
vt 0.487931 0.496019
vt 0.453161 0.501102
vt 0.424927 0.511196
vt 0.401921 0.525299
vt 0.382837 0.542408
vt 0.356607 0.641649
vt 0.353426 0.672092
vt 0.343187 0.703056
vt 0.766412 0.707370
vt 0.777087 0.726788
vt 0.323536 0.734718
vt 0.789592 0.746032
vt 0.816940 0.787483
vt 0.841849 0.827845
vt 0.292121 0.767251
vt 0.861877 0.866028
vt 0.874585 0.900944
vt 0.877534 0.931502
vt 0.868282 0.956613
vt 0.844390 0.975190
vt 0.812075 0.986213
vt 0.779236 0.990178
vt 0.745962 0.988261
vt 0.712340 0.981638
vt 0.678455 0.971486
vt 0.644397 0.958981
vt 0.610252 0.945299
vt 0.583397 0.933826
vt 0.555540 0.923964
vt 0.525679 0.917327
vt 0.492812 0.915526
vt 0.455935 0.920173
vt 0.414048 0.932882
vt 0.366149 0.955263
vt 0.246589 0.800830
vt 0.319556 0.977644
vt 0.201783 0.832812
vt 0.281330 0.990353
vt 0.250075 0.995000
vt 0.172401 0.860872
vt 0.224396 0.993199
vt 0.202901 0.986561
vt 0.155873 0.885664
vt 0.184194 0.976700
vt 0.149627 0.907843
vt 0.151094 0.928060
vt 0.157703 0.946970
vt 0.166882 0.965226
# 272 texture coordinates

vn -0.224941 -0.475161 -0.850661
vn -0.443724 -0.707295 -0.550311
vn -0.443724 0.707295 -0.550311
vn -0.224941 0.475161 -0.850661
vn -0.494555 -0.707839 -0.504361
vn -0.494555 0.707839 -0.504361
vn -0.716613 -0.448681 -0.533995
vn -0.716613 0.448681 -0.533995
vn -0.636037 -0.708993 -0.304608
vn -0.636037 0.708993 -0.304608
vn -0.867021 -0.448975 -0.216092
vn -0.867021 0.448975 -0.216092
vn -0.704530 -0.708339 -0.043509
vn -0.704530 0.708339 -0.043509
vn -0.553853 -0.832152 0.027737
vn -0.553853 0.832152 0.027737
vn -0.690928 -0.709611 0.138094
vn -0.690928 0.709611 0.138094
vn -0.663834 -0.707318 0.242952
vn -0.663834 0.707318 0.242952
vn -0.794222 -0.448694 0.409738
vn -0.794222 0.448694 0.409738
vn -0.499317 -0.714802 0.489633
vn -0.499317 0.714802 0.489633
vn -0.210589 -0.469317 0.857551
vn -0.210589 0.469317 0.857551
vn 0.314695 -0.459239 0.830702
vn 0.314695 0.459239 0.830702
vn 0.373197 -0.834006 0.406395
vn 0.373197 0.834006 0.406395
vn 0.534415 -0.707123 0.463009
vn 0.534415 0.707123 0.463009
vn 0.466287 -0.709815 0.527958
vn 0.466287 0.709815 0.527958
vn 0.375529 -0.452128 0.809048
vn 0.375529 0.452128 0.809048
vn 0.068103 -0.712357 0.698506
vn 0.068103 0.712357 0.698506
vn -0.056273 -0.962162 0.266602
vn -0.056273 0.962162 0.266602
vn -0.289040 -0.708262 0.644066
vn -0.289040 0.708262 0.644066
vn -0.363090 -0.707346 0.606487
vn -0.363090 0.707346 0.606487
vn -0.489960 -0.447216 0.748290
vn -0.489960 0.447216 0.748290
vn -0.380405 -0.707147 0.596015
vn -0.380405 0.707147 0.596015
vn -0.350014 -0.707322 0.614154
vn -0.350014 0.707322 0.614154
vn -0.361339 -0.448018 0.817750
vn -0.361339 0.448018 0.817750
vn -0.155498 -0.709935 0.686886
vn -0.155498 0.709935 0.686886
vn 0.113938 -0.456359 0.882471
vn 0.113938 0.456359 0.882471
vn 0.409143 -0.720855 0.559438
vn 0.409143 0.720855 0.559438
vn 0.784946 -0.452183 0.423545
vn 0.784946 0.452183 0.423545
vn 0.687489 -0.709031 0.156952
vn 0.687489 0.709031 0.156952
vn 0.893280 -0.448629 0.027973
vn 0.893280 0.448629 0.027973
vn 0.700676 -0.707936 -0.088771
vn 0.700676 0.707936 -0.088771
vn 0.867989 -0.447631 -0.214990
vn 0.867989 0.447631 -0.214990
vn 0.670723 -0.707270 -0.223382
vn 0.670723 0.707270 -0.223382
vn 0.835012 -0.447252 -0.320501
vn 0.835012 0.447252 -0.320501
vn 0.653333 -0.707129 -0.270414
vn 0.653333 0.707129 -0.270414
vn 0.833161 -0.447394 -0.325086
vn 0.833161 0.447394 -0.325086
vn 0.679041 -0.707760 -0.194885
vn 0.679041 0.707760 -0.194885
vn 0.885482 -0.448418 -0.121827
vn 0.885482 0.448418 -0.121827
vn 0.705230 -0.708541 0.024917
vn 0.705230 0.708541 0.024917
vn 0.874155 -0.448496 0.186291
vn 0.874155 0.448496 0.186291
vn 0.659474 -0.708005 0.252633
vn 0.659474 0.708005 0.252633
vn 0.639008 -0.707112 0.302757
vn 0.639008 0.707112 0.302757
vn 0.654849 -0.707818 0.264890
vn 0.654849 0.707818 0.264890
vn 0.869336 -0.448560 0.207482
vn 0.869336 0.448560 0.207482
vn 0.704476 -0.709201 0.027347
vn 0.704476 0.709201 0.027347
vn 0.692775 -0.709436 -0.129474
vn 0.692775 0.709436 -0.129474
vn 0.651972 -0.708630 -0.269770
vn 0.651972 0.708630 -0.269770
vn 0.476718 -0.832371 -0.282663
vn 0.476718 0.832371 -0.282663
vn 0.589438 -0.459510 -0.664389
vn 0.589438 0.459510 -0.664389
vn 0.275739 -0.707850 -0.650320
vn 0.275739 0.707850 -0.650320
vn 0.181156 -0.450339 -0.874287
vn 0.181156 0.450339 -0.874287
vn -0.070778 -0.712432 -0.698162
vn -0.070778 0.712432 -0.698162
vn -0.293747 -0.711455 -0.638393
vn -0.293747 0.711455 -0.638393
vn -0.453172 -0.709255 -0.539994
vn -0.453172 0.709255 -0.539994
vn -0.426650 -0.832700 -0.352960
vn -0.426650 0.832700 -0.352960
vn -0.572320 -0.707117 -0.415253
vn -0.572320 0.707117 -0.415253
vn -0.134130 -0.983980 -0.117442
vn -0.134130 0.983980 -0.117442
vn -0.339502 -0.833493 -0.435922
vn -0.339502 0.833493 -0.435922
vn -0.298479 -0.709572 -0.638293
vn -0.298479 0.709572 -0.638293
vn -0.148168 -0.709156 -0.689308
vn -0.148168 0.709156 -0.689308
vn -0.023890 -0.448286 -0.893571
vn -0.023890 0.448286 -0.893571
vn 0.063363 -0.707377 -0.703990
vn 0.063363 0.707377 -0.703990
# 128 normals

usemtl wire_006135006
f 1/1/1 2/2/2 3/3/3 4/4/4
f 2/5/2 5/6/5 6/7/6 3/8/3
f 5/6/5 7/9/7 8/10/8 6/7/6
f 7/9/7 9/11/9 10/12/10 8/10/8
f 9/11/9 11/13/11 12/14/12 10/12/10
f 11/13/11 13/15/13 14/16/14 12/14/12
f 13/15/13 15/17/15 16/18/16 14/16/14
f 15/17/15 17/19/17 18/20/18 16/18/16
f 17/19/17 19/21/19 20/22/20 18/20/18
f 19/21/19 21/23/21 22/24/22 20/22/20
f 21/23/21 23/25/23 24/26/24 22/24/22
f 23/27/23 25/28/25 26/29/26 24/30/24
f 25/28/25 27/31/27 28/32/28 26/29/26
f 27/31/27 29/33/29 30/34/30 28/32/28
f 29/35/29 31/36/31 32/37/32 30/38/30
f 31/36/31 33/39/33 34/40/34 32/37/32
f 33/41/33 35/42/35 36/43/36 34/44/34
f 35/42/35 37/45/37 38/46/38 36/43/36
f 37/45/37 39/47/39 40/48/40 38/46/38
f 39/47/39 41/49/41 42/50/42 40/48/40
f 41/49/41 43/51/43 44/52/44 42/50/42
f 43/51/43 45/53/45 46/54/46 44/52/44
f 45/53/45 47/55/47 48/56/48 46/54/46
f 47/55/47 49/57/49 50/58/50 48/56/48
f 49/57/49 51/59/51 52/60/52 50/58/50
f 51/59/51 53/61/53 54/62/54 52/60/52
f 53/61/53 55/63/55 56/64/56 54/62/54
f 55/63/55 57/65/57 58/66/58 56/64/56
f 57/67/57 59/68/59 60/69/60 58/70/58
f 59/68/59 61/71/61 62/72/62 60/69/60
f 61/71/61 63/73/63 64/74/64 62/72/62
f 63/73/63 65/75/65 66/76/66 64/74/64
f 65/75/65 67/77/67 68/78/68 66/76/66
f 67/77/67 69/79/69 70/80/70 68/78/68
f 69/79/69 71/81/71 72/82/72 70/80/70
f 71/81/71 73/83/73 74/84/74 72/82/72
f 73/83/73 75/85/75 76/86/76 74/84/74
f 75/85/75 77/87/77 78/88/78 76/86/76
f 77/87/77 79/89/79 80/90/80 78/88/78
f 79/89/79 81/91/81 82/92/82 80/90/80
f 81/91/81 83/93/83 84/94/84 82/92/82
f 83/93/83 85/95/85 86/96/86 84/94/84
f 85/95/85 87/97/87 88/98/88 86/96/86
f 87/97/87 89/99/89 90/100/90 88/98/88
f 89/99/89 91/101/91 92/102/92 90/100/90
f 91/101/91 93/103/93 94/104/94 92/102/92
f 93/103/93 95/105/95 96/106/96 94/104/94
f 95/105/95 97/107/97 98/108/98 96/106/96
f 97/107/97 99/109/99 100/110/100 98/108/98
f 99/109/99 101/111/101 102/112/102 100/110/100
f 101/113/101 103/114/103 104/115/104 102/116/102
f 103/114/103 105/117/105 106/118/106 104/115/104
f 105/117/105 107/119/107 108/120/108 106/118/106
f 107/119/107 109/121/109 110/122/110 108/120/108
f 109/121/109 111/123/111 112/124/112 110/122/110
f 111/125/111 113/126/113 114/127/114 112/128/112
f 113/126/113 115/129/115 116/130/116 114/127/114
f 115/129/115 117/131/117 118/132/118 116/130/116
f 117/133/117 119/134/119 120/135/120 118/136/118
f 119/134/119 121/137/121 122/138/122 120/135/120
f 121/137/121 123/139/123 124/140/124 122/138/122
f 123/139/123 125/141/125 126/142/126 124/140/124
f 125/141/125 127/143/127 128/144/128 126/142/126
f 127/143/127 1/1/1 4/4/4 128/144/128
f 127/145/127 39/146/39 2/147/2 1/148/1
f 23/149/23 29/150/29 27/151/27 25/152/25
f 21/153/21 19/154/19 29/150/29 23/149/23
f 19/154/19 17/155/17 31/156/31 29/150/29
f 15/157/15 33/158/33 31/156/31 17/155/17
f 15/157/15 37/159/37 35/160/35 33/158/33
f 15/157/15 13/161/13 39/146/39 37/159/37
f 11/162/11 9/163/9 39/146/39 13/161/13
f 7/164/7 5/165/5 39/146/39 9/163/9
f 2/147/2 39/146/39 5/165/5
f 125/166/125 123/167/123 39/146/39 127/145/127
f 121/168/121 41/169/41 39/146/39 123/167/123
f 121/168/121 119/170/119 43/171/43 41/169/41
f 119/170/119 47/172/47 45/173/45 43/171/43
f 119/170/119 117/174/117 49/175/49 47/172/47
f 117/174/117 53/176/53 51/177/51 49/175/49
f 117/174/117 57/178/57 55/179/55 53/176/53
f 117/174/117 61/180/61 59/181/59 57/178/57
f 117/174/117 65/182/65 63/183/63 61/180/61
f 117/174/117 69/184/69 67/185/67 65/182/65
f 117/174/117 73/186/73 71/187/71 69/184/69
f 117/174/117 77/188/77 75/189/75 73/186/73
f 117/174/117 81/190/81 79/191/79 77/188/77
f 117/174/117 85/192/85 83/193/83 81/190/81
f 117/174/117 115/194/115 87/195/87 85/192/85
f 115/194/115 113/196/113 89/197/89 87/195/87
f 113/196/113 93/198/93 91/199/91 89/197/89
f 111/200/111 95/201/95 93/198/93 113/196/113
f 111/200/111 109/202/109 97/203/97 95/201/95
f 109/202/109 107/204/107 99/205/99 97/203/97
f 105/206/105 103/207/103 99/205/99 107/204/107
f 103/207/103 101/208/101 99/205/99
f 128/209/128 4/210/4 3/211/3 40/212/40
f 24/213/24 26/214/26 28/215/28 30/216/30
f 22/217/22 24/213/24 30/216/30 20/218/20
f 20/218/20 30/216/30 32/219/32 18/220/18
f 16/221/16 18/220/18 32/219/32 34/222/34
f 16/221/16 34/222/34 36/223/36 38/224/38
f 16/221/16 38/224/38 40/212/40 14/225/14
f 12/226/12 14/225/14 40/212/40 10/227/10
f 8/228/8 10/227/10 40/212/40 6/229/6
f 3/211/3 6/229/6 40/212/40
f 126/230/126 128/209/128 40/212/40 124/231/124
f 122/232/122 124/231/124 40/212/40 42/233/42
f 122/232/122 42/233/42 44/234/44 120/235/120
f 120/235/120 44/234/44 46/236/46 48/237/48
f 120/235/120 48/237/48 50/238/50 118/239/118
f 118/239/118 50/238/50 52/240/52 54/241/54
f 118/239/118 54/241/54 56/242/56 58/243/58
f 118/239/118 58/243/58 60/244/60 62/245/62
f 118/239/118 62/245/62 64/246/64 66/247/66
f 118/239/118 66/247/66 68/248/68 70/249/70
f 118/239/118 70/249/70 72/250/72 74/251/74
f 118/239/118 74/251/74 76/252/76 78/253/78
f 118/239/118 78/253/78 80/254/80 82/255/82
f 118/239/118 82/255/82 84/256/84 86/257/86
f 118/239/118 86/257/86 88/258/88 116/259/116
f 116/259/116 88/258/88 90/260/90 114/261/114
f 114/261/114 90/260/90 92/262/92 94/263/94
f 112/264/112 114/261/114 94/263/94 96/265/96
f 112/264/112 96/265/96 98/266/98 110/267/110
f 110/267/110 98/266/98 100/268/100 108/269/108
f 106/270/106 108/269/108 100/268/100 104/271/104
f 104/271/104 100/268/100 102/272/102

# 128 faces
