# Wavefront Obj file
# 
# verts: 72 uv-s: 120
mtllib liantexture.mtl

g Cylinder001
#pivot 0.000000 0.000000 0.000000

v 2.391100 0.000000 0.136400
v 3.093600 0.000000 -2.025700
v 4.230300 0.000000 -1.199900
v 4.664500 0.000000 0.136400
v 0.551900 0.000000 -1.199900
v 1.688600 0.000000 -2.025700
v 0.551900 0.000000 1.472700
v 0.117700 0.000000 0.136400
v 3.093600 0.000000 2.298600
v 1.688600 0.000000 2.298600
v 4.230400 0.000000 1.472700
v 3.197000 14.722200 -0.450300
v 3.771200 14.381400 1.259600
v 1.743200 14.497700 -1.521400
v -0.015400 13.781700 -1.532000
v -1.427800 13.265300 -0.490700
v -1.954300 13.038600 1.199000
v -1.399800 12.954200 2.890500
v 0.039700 13.016100 3.939500
v 1.810000 13.226700 3.955300
v 3.240700 13.615600 2.933000
v 2.745900 40.555500 -0.127200
v 3.425700 40.555500 1.965200
v 0.966000 40.555500 -1.420400
v -1.234100 40.555500 -1.420400
v -3.014000 40.555500 -0.127200
v -3.693900 40.555500 1.965200
v -3.014000 40.555500 4.057600
v -1.234100 40.555500 5.350700
v 0.966000 40.555500 5.350700
v 2.745900 40.555500 4.057600
v 3.966100 61.445702 -0.913300
v 4.641400 61.445702 1.165100
v 2.198100 61.445702 -2.197700
v 0.012800 61.445702 -2.197700
v -1.755100 61.445702 -0.913300
v -2.430400 61.445702 1.165100
v -1.755100 61.445702 3.243400
v 0.012800 61.445702 4.527900
v 2.198100 61.445702 4.527900
v 3.966100 61.445702 3.243400
v 5.080000 84.210503 -1.847000
v 5.724500 84.210503 0.136400
v 3.392800 84.210503 -3.072800
v 1.307400 84.210503 -3.072800
v -0.379800 84.210503 -1.847000
v -1.024300 84.210503 0.136400
v -0.379800 84.210503 2.119800
v 1.307400 84.210503 3.345600
v 3.392800 84.210503 3.345600
v 5.080000 84.210503 2.119800
v 4.251400 116.349197 -2.114800
v 4.908500 116.329597 -0.092200
v 2.524000 116.500000 -3.364500
v 0.384900 116.775597 -3.365400
v -1.348400 117.023499 -2.116000
v -2.014000 117.206596 -0.092200
v -1.356600 117.196404 1.932100
v 0.371000 117.079498 3.182000
v 2.510200 116.814903 3.181200
v 4.243400 116.537903 1.930800
v 2.745900 139.762695 -1.956000
v 3.425800 139.762695 0.136400
v 0.966000 139.762695 -3.249100
v -1.234100 139.762695 -3.249100
v -3.014000 139.762695 -1.956000
v -3.693900 139.762695 0.136400
v -3.014000 139.762695 2.228800
v -1.234100 139.762695 3.522000
v 0.966000 139.762695 3.522000
v 2.745900 139.762695 2.228800
v -0.134100 139.762695 0.136400
# 72 positions

vt 0.127197 0.941729
vt 0.141357 0.946330
vt 0.135949 0.953775
vt 0.127197 0.956619
vt 0.135949 0.929684
vt 0.141357 0.937128
vt 0.118445 0.929684
vt 0.127197 0.926840
vt 0.113035 0.946330
vt 0.113035 0.937128
vt 0.118445 0.953776
vt 0.005000 0.030682
vt 0.005000 0.039434
vt 0.101423 0.034524
vt 0.099191 0.023325
vt 0.010565 0.079627
vt 0.018010 0.079627
vt 0.026854 0.174579
vt 0.017333 0.176050
vt 0.027212 0.079627
vt 0.038372 0.169890
vt 0.034657 0.079627
vt 0.047623 0.166508
vt 0.957333 0.050795
vt 0.957333 0.059547
vt 0.871937 0.066506
vt 0.870452 0.055439
vt 0.957333 0.068299
vt 0.872489 0.077585
vt 0.086637 0.995000
vt 0.094082 0.995000
vt 0.083282 0.909751
vt 0.073854 0.910157
vt 0.103284 0.995000
vt 0.094877 0.908372
vt 0.110729 0.995000
vt 0.104247 0.905825
vt 0.005000 0.021930
vt 0.094175 0.012366
vt 0.270617 0.032408
vt 0.270617 0.018704
vt 0.031945 0.345244
vt 0.020287 0.345244
vt 0.046354 0.345244
vt 0.058011 0.345244
vt 0.691715 0.071524
vt 0.691715 0.057820
vt 0.691715 0.085228
vt 0.074940 0.729383
vt 0.063282 0.729383
vt 0.089349 0.729383
vt 0.101007 0.729383
vt 0.270617 0.005000
vt 0.407437 0.037557
vt 0.407437 0.023944
vt 0.023875 0.482064
vt 0.012295 0.482064
vt 0.038188 0.482064
vt 0.049766 0.482064
vt 0.554895 0.066284
vt 0.554895 0.052672
vt 0.554895 0.079896
vt 0.083106 0.592563
vt 0.071527 0.592563
vt 0.097419 0.592563
vt 0.108998 0.592563
vt 0.407437 0.010332
vt 0.556535 0.043672
vt 0.556535 0.030682
vt 0.016050 0.631162
vt 0.005000 0.631162
vt 0.029709 0.631162
vt 0.040759 0.631162
vt 0.405798 0.059547
vt 0.405798 0.046556
vt 0.405798 0.072537
vt 0.091585 0.443465
vt 0.080535 0.443465
vt 0.105243 0.443465
vt 0.116294 0.443465
vt 0.556535 0.017691
vt 0.767027 0.045426
vt 0.766899 0.032179
vt 0.021740 0.842641
vt 0.010427 0.841654
vt 0.035750 0.844446
vt 0.047103 0.846070
vt 0.189690 0.058049
vt 0.190889 0.044795
vt 0.189757 0.071308
vt 0.085452 0.228190
vt 0.074137 0.227424
vt 0.099463 0.229923
vt 0.110814 0.231737
vt 0.768263 0.018929
vt 0.920373 0.044386
vt 0.920373 0.030682
vt 0.031945 0.995000
vt 0.020287 0.995000
vt 0.046354 0.995000
vt 0.058011 0.995000
vt 0.041959 0.059547
vt 0.041959 0.045843
vt 0.041959 0.073251
vt 0.074940 0.079627
vt 0.063282 0.079627
vt 0.089349 0.079627
vt 0.101007 0.079627
vt 0.920373 0.016978
vt 0.132366 0.893502
vt 0.146070 0.874639
vt 0.132366 0.870186
vt 0.118661 0.874639
vt 0.110192 0.886297
vt 0.110192 0.900706
vt 0.118661 0.912364
vt 0.132366 0.916816
vt 0.146070 0.912364
vt 0.154540 0.900706
vt 0.154540 0.886297
# 120 texture coordinates

vn 0.000000 -1.000000 0.000000
vn 0.216824 -0.704365 -0.675912
vn 0.740557 -0.403509 -0.537360
vn 0.709955 -0.704240 0.003067
vn -0.530681 -0.753187 -0.388699
vn -0.273508 -0.468367 -0.840135
vn -0.504356 -0.781996 0.366207
vn -0.822916 -0.568154 -0.003240
vn 0.205373 -0.753046 0.625094
vn -0.250980 -0.568242 0.783652
vn 0.713830 -0.468592 0.520450
vn 0.807890 0.054170 -0.586838
vn 0.999296 0.037495 0.000930
vn 0.307912 0.037276 -0.950684
vn -0.308811 -0.007384 -0.951095
vn -0.806551 -0.063874 -0.587704
vn -0.993933 -0.109978 -0.001488
vn -0.802466 -0.127596 0.582896
vn -0.305279 -0.109900 0.945900
vn 0.309423 -0.063780 0.948783
vn 0.808675 -0.007277 0.588211
vn 0.808664 -0.023778 -0.587790
vn 0.999748 -0.022436 -0.001119
vn 0.309727 -0.020298 -0.950609
vn -0.308570 -0.013539 -0.951105
vn -0.809266 -0.006349 -0.587408
vn -0.999999 -0.001338 0.000351
vn -0.808982 -0.000262 0.587833
vn -0.309016 -0.003534 0.951050
vn 0.308540 -0.009915 0.951160
vn 0.809023 -0.017069 0.587529
vn 0.807227 -0.066387 -0.586496
vn 0.998605 -0.052801 0.000212
vn 0.308371 -0.053111 -0.949782
vn -0.309072 -0.017955 -0.950869
vn -0.808648 0.025681 -0.587732
vn -0.998138 0.061001 -0.000239
vn -0.806762 0.074565 0.586152
vn -0.308208 0.061309 0.949341
vn 0.309063 0.026184 0.950681
vn 0.808823 -0.017450 0.587793
vn 0.808689 -0.023819 -0.587753
vn 0.999939 -0.011060 0.000239
vn 0.308550 -0.026509 -0.950839
vn -0.308971 -0.018149 -0.950898
vn -0.808810 -0.001971 -0.588067
vn -0.999874 0.015852 -0.000276
vn -0.808603 0.028584 0.587660
vn -0.308468 0.031397 0.950716
vn 0.309044 0.023137 0.950766
vn 0.808841 0.006898 0.587987
vn 0.808460 0.035968 -0.587451
vn 0.999017 0.044326 -0.000022
vn 0.308904 0.012562 -0.951010
vn -0.308809 -0.017149 -0.950969
vn -0.808276 -0.041894 -0.587311
vn -0.998641 -0.052107 0.000031
vn -0.808192 -0.043798 0.587288
vn -0.308854 -0.020085 0.950897
vn 0.308848 0.009868 0.951060
vn 0.808513 0.034455 0.587469
vn 0.541863 0.742660 -0.393499
vn 0.861300 0.508096 -0.000269
vn 0.270907 0.482870 -0.832734
vn -0.214561 0.719160 -0.660888
vn -0.732009 0.426398 -0.531364
vn -0.714405 0.699732 0.000252
vn -0.735156 0.417656 0.533956
vn -0.217012 0.712732 0.667022
vn 0.272458 0.470040 0.839541
vn 0.545089 0.739109 0.395722
vn 0.000000 1.000000 0.000000
# 72 normals

usemtl wire_006135113
f 1/1/1 2/2/2 3/3/3 4/4/4
f 1/1/1 5/5/5 6/6/6 2/2/2
f 1/1/1 7/7/7 8/8/8 5/5/5
f 1/1/1 9/9/9 10/10/10 7/7/7
f 1/1/1 4/4/4 11/11/11 9/9/9
f 4/12/4 3/13/3 12/14/12 13/15/13
f 3/16/3 2/17/2 14/18/14 12/19/12
f 2/17/2 6/20/6 15/21/15 14/18/14
f 6/20/6 5/22/5 16/23/16 15/21/15
f 5/24/5 8/25/8 17/26/17 16/27/16
f 8/25/8 7/28/7 18/29/18 17/26/17
f 7/30/7 10/31/10 19/32/19 18/33/18
f 10/31/10 9/34/9 20/35/20 19/32/19
f 9/34/9 11/36/11 21/37/21 20/35/20
f 11/38/11 4/12/4 13/15/13 21/39/21
f 13/15/13 12/14/12 22/40/22 23/41/23
f 12/19/12 14/18/14 24/42/24 22/43/22
f 14/18/14 15/21/15 25/44/25 24/42/24
f 15/21/15 16/23/16 26/45/26 25/44/25
f 16/27/16 17/26/17 27/46/27 26/47/26
f 17/26/17 18/29/18 28/48/28 27/46/27
f 18/33/18 19/32/19 29/49/29 28/50/28
f 19/32/19 20/35/20 30/51/30 29/49/29
f 20/35/20 21/37/21 31/52/31 30/51/30
f 21/39/21 13/15/13 23/41/23 31/53/31
f 23/41/23 22/40/22 32/54/32 33/55/33
f 22/43/22 24/42/24 34/56/34 32/57/32
f 24/42/24 25/44/25 35/58/35 34/56/34
f 25/44/25 26/45/26 36/59/36 35/58/35
f 26/47/26 27/46/27 37/60/37 36/61/36
f 27/46/27 28/48/28 38/62/38 37/60/37
f 28/50/28 29/49/29 39/63/39 38/64/38
f 29/49/29 30/51/30 40/65/40 39/63/39
f 30/51/30 31/52/31 41/66/41 40/65/40
f 31/53/31 23/41/23 33/55/33 41/67/41
f 33/55/33 32/54/32 42/68/42 43/69/43
f 32/57/32 34/56/34 44/70/44 42/71/42
f 34/56/34 35/58/35 45/72/45 44/70/44
f 35/58/35 36/59/36 46/73/46 45/72/45
f 36/61/36 37/60/37 47/74/47 46/75/46
f 37/60/37 38/62/38 48/76/48 47/74/47
f 38/64/38 39/63/39 49/77/49 48/78/48
f 39/63/39 40/65/40 50/79/50 49/77/49
f 40/65/40 41/66/41 51/80/51 50/79/50
f 41/67/41 33/55/33 43/69/43 51/81/51
f 43/69/43 42/68/42 52/82/52 53/83/53
f 42/71/42 44/70/44 54/84/54 52/85/52
f 44/70/44 45/72/45 55/86/55 54/84/54
f 45/72/45 46/73/46 56/87/56 55/86/55
f 46/75/46 47/74/47 57/88/57 56/89/56
f 47/74/47 48/76/48 58/90/58 57/88/57
f 48/78/48 49/77/49 59/91/59 58/92/58
f 49/77/49 50/79/50 60/93/60 59/91/59
f 50/79/50 51/80/51 61/94/61 60/93/60
f 51/81/51 43/69/43 53/83/53 61/95/61
f 53/83/53 52/82/52 62/96/62 63/97/63
f 52/85/52 54/84/54 64/98/64 62/99/62
f 54/84/54 55/86/55 65/100/65 64/98/64
f 55/86/55 56/87/56 66/101/66 65/100/65
f 56/89/56 57/88/57 67/102/67 66/103/66
f 57/88/57 58/90/58 68/104/68 67/102/67
f 58/92/58 59/91/59 69/105/69 68/106/68
f 59/91/59 60/93/60 70/107/70 69/105/69
f 60/93/60 61/94/61 71/108/71 70/107/70
f 61/95/61 53/83/53 63/97/63 71/109/71
f 72/110/72 71/111/71 63/112/63 62/113/62
f 72/110/72 62/113/62 64/114/64 65/115/65
f 72/110/72 65/115/65 66/116/66 67/117/67
f 72/110/72 67/117/67 68/118/68 69/119/69
f 72/110/72 69/119/69 70/120/70 71/111/71

# 70 faces
